<svg xmlns="http://www.w3.org/2000/svg" viewBox="0 0 32 32">
  <defs>
    <linearGradient id="bg" x1="0" y1="0" x2="1" y2="1">
      <stop offset="0%" stop-color="#2563eb"/>
      <stop offset="100%" stop-color="#0f2d8a"/>
    </linearGradient>
  </defs>
  <rect width="32" height="32" rx="7" fill="url(#bg)"/>
  <path fill="white" d="
    M 16,3
    L 17.25,5.17 L 19.75,5.17 L 18.5,7.33
    L 19.75,9.5 L 22.25,9.5 L 23.5,7.33 L 24.76,9.5
    L 27.26,9.5 L 26.01,11.67 L 27.26,13.83 L 24.76,13.83
    L 23.51,16 L 24.76,18.17 L 27.26,18.17 L 26.01,20.33
    L 27.26,22.5 L 24.76,22.5 L 23.5,24.67 L 22.25,22.5
    L 19.75,22.5 L 18.5,24.67 L 19.75,26.83 L 17.25,26.83
    L 16,29 L 14.75,26.83 L 12.25,26.83 L 13.5,24.67
    L 12.25,22.5 L 9.75,22.5 L 8.5,24.67 L 7.24,22.5
    L 4.74,22.5 L 5.99,20.33 L 4.74,18.17 L 7.24,18.17
    L 8.49,16 L 7.24,13.83 L 4.74,13.83 L 5.99,11.67
    L 4.74,9.5 L 7.24,9.5 L 8.5,7.33 L 9.75,9.5
    L 12.25,9.5 L 13.5,7.33 L 12.25,5.17 L 14.75,5.17
    Z"/>
</svg>
